<?xml version="1.0" encoding="UTF-8" standalone="no"?>
<!-- Created with Inkscape (http://www.inkscape.org/) -->

<svg
   xmlns:dc="http://purl.org/dc/elements/1.1/"
   xmlns:cc="http://creativecommons.org/ns#"
   xmlns:rdf="http://www.w3.org/1999/02/22-rdf-syntax-ns#"
   xmlns:svg="http://www.w3.org/2000/svg"
   xmlns="http://www.w3.org/2000/svg"
   xmlns:sodipodi="http://sodipodi.sourceforge.net/DTD/sodipodi-0.dtd"
   xmlns:inkscape="http://www.inkscape.org/namespaces/inkscape"
   version="1.1"
   id="svg2"
   width="416"
   height="444.79999"
   viewBox="0 0 416 444.79999"
   sodipodi:docname="morse.svg"
   inkscape:version="0.92.3 (2405546, 2018-03-11)">
  <metadata
     id="metadata8">
    <rdf:RDF>
      <cc:Work
         rdf:about="">
        <dc:format>image/svg+xml</dc:format>
        <dc:type
           rdf:resource="http://purl.org/dc/dcmitype/StillImage" />
        <dc:title></dc:title>
      </cc:Work>
    </rdf:RDF>
  </metadata>
  <defs
     id="defs6" />
  <sodipodi:namedview
     pagecolor="#ffffff"
     bordercolor="#666666"
     borderopacity="1"
     objecttolerance="10"
     gridtolerance="10"
     guidetolerance="10"
     inkscape:pageopacity="0"
     inkscape:pageshadow="2"
     inkscape:window-width="1920"
     inkscape:window-height="1025"
     id="namedview4"
     showgrid="false"
     inkscape:zoom="0.53057555"
     inkscape:cx="-392.29151"
     inkscape:cy="222.39999"
     inkscape:window-x="0"
     inkscape:window-y="27"
     inkscape:window-maximized="1"
     inkscape:current-layer="svg2" />
  <path
     style="fill:#000000;stroke-width:0.31999999"
     d="m 307.98693,376.71616 c -0.87281,-0.69478 -2.83102,-2.55888 -4.35157,-4.1424 -2.35592,-2.45354 -3.03008,-3.41846 -4.56005,-6.52698 -3.44994,-7.00934 -3.9563,-11.62278 -2.5604,-23.32777 0.52225,-4.37923 1.5409,-7.18227 3.58587,-9.86723 l 1.06078,-1.39274 -0.90078,0.18829 c -4.32746,0.90467 -21.62852,3.26448 -29.54078,4.02928 -2.024,0.19561 -6.416,0.65347 -9.76,1.01741 -5.37572,0.58508 -7.21055,0.63737 -15.84,0.45136 -5.368,-0.11572 -11.63196,-0.40903 -13.91992,-0.65181 -2.28795,-0.24275 -4.19748,-0.40384 -4.24339,-0.35792 -0.0459,0.0459 0.60205,0.52672 1.43992,1.06845 3.6578,2.36499 4.98735,3.44118 6.92944,5.60905 2.58698,2.88771 4.62409,5.92781 5.14559,7.67904 0.34307,1.1521 0.37658,1.69543 0.19503,3.16227 -0.0772,0.62404 -1.80086,2.19594 -3.05359,2.7848 -3.41013,1.60295 -9.28833,1.95095 -21.45308,1.27002 -3.52,-0.19706 -17.128,-0.38198 -30.24,-0.41098 -20.97601,-0.0464 -24.26287,-0.12 -27.36,-0.61251 -7.20876,-1.1464 -16.29532,-3.79725 -20.8,-6.06803 -3.22534,-1.62586 -10.13559,-5.85718 -12.03766,-7.37098 -1.86297,-1.48265 -6.3235,-6.48963 -8.36657,-9.39152 -1.73199,-2.46006 -3.30933,-5.77161 -3.73938,-7.85068 -0.41611,-2.01162 -0.5179,-2.12733 -2.21413,-2.51696 -0.96404,-0.22144 -2.39021,0.0804 -8.36226,1.77014 -3.96,1.12038 -10.008,2.72051 -13.44,3.55584 -5.923568,1.44173 -6.515866,1.52566 -11.68,1.65562 -4.408467,0.11091 -6.077123,0.0211 -8.8,-0.47405 -5.552067,-1.00947 -29.303206,-7.36429 -35.52,-9.50368 -8.024705,-2.76156 -14.789569,-6.43517 -18.84739,-10.23494 -3.662125,-3.42924 -4.381447,-5.34373 -2.63606,-7.01591 2.081998,-1.99468 5.096977,-2.1538 12.19339,-0.64351 4.602333,0.97949 7.998262,2.1376 14.89006,5.07795 7.530246,3.21273 10.002125,4.12394 14.757434,5.44003 2.267411,0.62753 5.744252,1.59144 7.726313,2.14202 1.982061,0.55058 3.685728,0.91907 3.785927,0.81887 0.100198,-0.1002 0.0264,-0.47325 -0.164,-0.82902 -0.190397,-0.35576 -0.492304,-2.06009 -0.670909,-3.7874 -0.178602,-1.72732 -0.534867,-4.36457 -0.791706,-5.86057 -1.013907,-5.90574 -1.762694,-13.41271 -1.753689,-17.58166 0.01507,-6.97614 1.227974,-18.34115 2.242089,-21.00848 0.522803,-1.37508 0.350359,-2.35044 -0.748934,-4.23602 -1.284816,-2.20379 -2.902781,-5.625 -3.884499,-8.21384 -2.771069,-7.30741 -4.517962,-23.81972 -3.33648,-31.53768 0.311433,-2.0344 0.313766,-2.73229 0.01075,-3.21748 -0.27345,-0.43786 -0.290935,-0.79896 -0.05962,-1.23117 0.180023,-0.33638 0.327315,-0.95198 0.327315,-1.36801 0,-0.41604 -1.37224,-5.50151 -3.04942,-11.30104 -6.593818,-22.80081 -10.384583,-37.57918 -11.330375,-44.1717 -0.199862,-1.39311 -0.502169,-3.49666 -0.671795,-4.67456 -0.410598,-2.85126 -0.390125,-9.65737 0.03959,-13.16113 l 0.346196,-2.82278 -1.910381,-1.81722 c -1.050707,-0.99948 -2.45129,-2.64523 -3.112403,-3.65723 -0.661114,-1.012 -1.307296,-1.84 -1.435962,-1.84 -0.256918,0 -2.455901,2.32581 -3.204406,3.38922 -0.606141,0.86235 -1.911034,1.58949 -1.911034,1.0661 0,-0.4992 1.968902,-3.11743 3.209258,-4.26765 1.13182,-1.04958 1.15215,-1.64067 0.193497,-5.62648 -0.275149,-1.144 -0.505331,-3.34899 -0.511513,-4.89997 l -0.01124,-2.81998 -1.642961,0.89422 c -0.903628,0.49181 -2.652756,1.79967 -3.88695,2.90635 -2.348037,2.10544 -2.960135,2.34689 -1.950007,0.76922 0.748059,-1.16836 2.838095,-2.9336 5.601978,-4.73143 l 2.122062,-1.38033 0.402512,-2.16904 c 0.513212,-2.76559 1.973081,-6.93771 3.502262,-10.00904 0.657213,-1.32 1.575744,-3.4089 2.041181,-4.64198 1.453005,-3.849472 5.895424,-12.293651 7.58399,-14.415699 2.319066,-2.914413 5.62641,-5.864854 8.23049,-7.342323 1.240819,-0.704 2.409581,-1.523929 2.597251,-1.822067 0.187667,-0.298134 0.926272,-2.668922 1.641341,-5.268409 2.129286,-7.740599 5.961152,-14.596192 12.726755,-22.769446 5.799738,-7.006429 10.223702,-10.23417 18.304326,-13.354909 8.256474,-3.188653 17.010617,-4.059037 25.966747,-2.581757 3.20473,0.528608 13.06908,3.3408 16.58436,4.727975 4.59036,1.811414 10.48628,5.394956 10.04662,6.106342 -0.12284,0.198768 -0.0598,0.247782 0.15114,0.117437 0.35966,-0.222279 4.41493,2.416489 9.0169,5.867308 1.32,0.989812 2.83054,2.072628 3.35675,2.406256 1.43433,0.909396 7.03069,6.422723 9.10638,8.971271 2.51319,3.085708 3.90221,5.207884 7.54014,11.519999 1.72442,2.992 4.88657,8.248 7.02701,11.68 8.6841,13.924202 10.10216,16.984052 15.08633,32.553052 3.10345,9.69417 3.77871,11.2977 8.25662,19.60695 5.39234,10.00605 10.32465,16.28673 18.68286,23.79027 8.01379,7.19434 15.84163,12.48334 31.58391,21.34016 3.872,2.17844 8.696,5.0239 10.72,6.32325 2.024,1.29935 5.336,3.15937 7.36,4.13336 15.89687,7.64993 39.76795,19.46286 49.7896,24.63904 10.37152,5.3569 13.96893,7.59006 22.3704,13.88682 7.8793,5.90539 11.00749,8.09755 12.28237,8.60717 0.59529,0.23797 2.25129,1.60066 3.68,3.02822 1.4287,1.42755 3.82163,3.3966 5.31763,4.37567 1.87245,1.22544 3.70195,2.84181 5.87133,5.18739 2.07289,2.24127 4.61469,4.50767 7.42752,6.62282 2.3519,1.76855 5.54006,4.33161 7.0848,5.69569 5.92752,5.23436 17.60435,20.46753 20.79779,27.13203 1.25104,2.61083 2.34624,7.92307 2.3705,11.49803 0.04,5.8969 -4.15239,12.41358 -10.87143,16.8986 -4.10896,2.74275 -13.44454,7.26688 -19.72051,9.5568 -23.32669,8.51114 -31.00906,11.9223 -43.27962,19.21712 -10.3878,6.17552 -17.69522,14.39853 -18.97065,21.34755 -0.82533,4.49671 -1.76333,5.84435 -4.35648,6.25901 -1.12957,0.18064 -1.42295,0.0712 -2.84632,-1.06186 z m 3.0211,-5.19306 c 0.67848,-2.64729 2.6906,-6.39382 5.10967,-9.51411 2.23356,-2.88099 3.25446,-3.81117 3.69714,-3.36848 0.12044,0.12045 0.13492,-9e-5 0.0322,-0.26784 -0.12401,-0.32317 0.4215,-1.01913 1.62262,-2.07024 2.20874,-1.93286 2.41968,-2.07072 2.80455,-1.83286 0.16758,0.10358 0.21472,0.0427 0.10476,-0.1352 -0.52156,-0.84387 8.94768,-6.85427 18.02106,-11.43847 8.84131,-4.46694 15.09875,-7.10499 29.28,-12.34409 19.66906,-7.26653 26.98342,-11.71249 30.25926,-18.3928 2.22557,-4.53849 2.3489,-8.89232 0.41984,-14.82317 -1.35424,-4.16363 -3.6806,-7.51931 -8.02668,-11.57808 -4.40653,-4.11518 -9.44634,-5.97672 -17.05242,-6.29855 -8.45088,-0.35757 -13.16141,0.77751 -20.96,5.05068 -4.62832,2.53604 -9.4575,4.54511 -10.2209,4.25217 -1.09456,-0.42002 -0.33584,-1.12683 3.2609,-3.03782 2.068,-1.09876 4.97187,-2.68894 6.45306,-3.53373 5.9184,-3.37559 11.912,-4.99639 19.56627,-5.29113 5.39632,-0.2078 8.83683,0.13302 12.37523,1.22593 1.13702,0.35118 2.13955,0.56624 2.2279,0.4779 0.2905,-0.2905 -4.56272,-6.07205 -7.2998,-8.69608 -3.29584,-3.15975 -5.38637,-4.92235 -8.96157,-7.55588 -3.36301,-2.47721 -4.85107,-3.84227 -7.95805,-7.30011 -1.58477,-1.76374 -3.30589,-3.254 -5.07939,-4.39811 -1.47533,-0.95175 -3.79571,-2.79095 -5.15639,-4.0871 -1.36067,-1.29615 -3.97094,-3.32248 -5.8006,-4.50294 -1.82967,-1.18047 -5.48666,-3.75862 -8.12666,-5.72923 -12.35734,-9.22406 -13.65062,-10.00581 -32.48,-19.63321 -10.90646,-5.57643 -11.66189,-5.95254 -15.35414,-7.64451 -1.84478,-0.84536 -4.43678,-2.11319 -5.76,-2.81737 -1.32322,-0.70419 -3.89765,-1.97923 -5.72094,-2.83342 -10.54228,-4.9389 -19.22301,-9.345 -22.01483,-11.17411 -1.75204,-1.14788 -6.49596,-3.95581 -10.54204,-6.23985 -18.502,-10.44327 -27.05526,-16.48937 -36.10899,-25.52342 -6.26711,-6.25348 -10.17803,-11.42523 -13.7839,-18.22767 -1.02624,-1.936 -2.17972,-4.024 -2.56329,-4.64 -1.14408,-1.83739 -3.82808,-7.64641 -4.87913,-10.56 -0.53966,-1.496 -1.78921,-5.384 -2.77677,-8.64 -3.21421,-10.59734 -6.23313,-17.36937 -11.69893,-26.243026 -1.4625,-2.374336 -3.57207,-5.798602 -4.68793,-7.609475 -1.11587,-1.810874 -2.35291,-3.8824 -2.74898,-4.603392 -0.39607,-0.720989 -0.86413,-1.543366 -1.04013,-1.827501 -0.176,-0.284134 -1.10046,-1.884608 -2.05435,-3.556608 -4.45104,-7.801875 -10.08169,-14.519081 -15.81146,-18.862636 -0.79999,-0.606451 -1.36921,-1.240701 -1.26492,-1.409443 0.10429,-0.168743 0.032,-0.209386 -0.16067,-0.09032 -0.19265,0.119069 -1.9789,-0.944957 -3.96944,-2.364503 -1.99054,-1.419542 -4.65622,-3.319692 -5.92374,-4.222556 -1.26751,-0.902861 -2.24106,-1.744327 -2.16344,-1.869923 0.0776,-0.125597 -0.0373,-0.208618 -0.25542,-0.18449 -0.21811,0.02413 -2.34056,-0.925981 -4.71656,-2.111357 -3.42603,-1.709229 -5.57819,-2.512768 -10.4,-3.882995 -7.75238,-2.203014 -11.05596,-2.762387 -16.29639,-2.75936 -10.023444,0.0058 -18.566522,2.895955 -25.33713,8.571664 -4.408723,3.695773 -10.727133,12.178854 -14.357782,19.276726 -1.729472,3.381094 -4.489709,10.174851 -4.236727,10.427833 0.0653,0.0653 1.043325,-0.683372 2.173383,-1.663718 1.130054,-0.980349 2.738646,-2.305347 3.574646,-2.944442 0.836,-0.639094 1.52,-1.241248 1.52,-1.338118 0,-0.09687 -0.43232,-0.367494 -0.960714,-0.601382 -2.296176,-1.016388 -1.263875,-4.372983 1.824823,-5.933549 1.399517,-0.707107 2.145392,-0.650592 3.182048,0.241101 0.663651,0.570848 0.881843,1.048304 0.881843,1.929677 0,0.69735 0.13593,1.112054 0.336,1.025078 0.1848,-0.08034 1.992,-0.871366 4.016,-1.757843 5.664086,-2.480771 6.871082,-2.707773 13.28,-2.497581 3.297091,0.108134 6.259347,0.379664 7.52,0.689306 6.92415,1.70071 12.14225,5.10134 18.82673,12.269363 1.8773,2.0131 4.97669,5.030655 6.88753,6.705673 5.21026,4.567238 10.40088,9.812317 16.26006,16.43063 3.66667,4.141737 6.27579,7.943727 7.76996,11.322317 0.42928,0.97067 0.86281,1.76485 0.9634,1.76485 0.1006,0 2.00088,-0.29165 4.22284,-0.64811 3.74522,-0.60082 4.68979,-0.62553 4.17343,-0.10917 -0.1115,0.11149 -1.8995,0.48045 -3.97334,0.81989 -2.07383,0.33945 -3.89156,0.73638 -4.03939,0.88206 -0.14782,0.14569 0.23776,1.90073 0.85685,3.90011 1.0152,3.27857 1.39202,4.93421 1.97189,8.66399 0.10166,0.65383 0.31929,1.27188 0.48363,1.37345 0.16435,0.10157 1.70677,0.45533 3.42761,0.78614 1.72084,0.33081 3.4888,0.74234 3.9288,0.9145 1.54766,0.60559 -0.16053,0.77043 -2.7776,0.26805 -1.37632,-0.26421 -3.02364,-0.55165 -3.6607,-0.63876 l -1.1583,-0.15838 -0.2164,2.38803 c -0.25209,2.78194 -1.45814,7.1705 -2.57779,9.38002 -0.43061,0.84978 -1.43685,2.22753 -2.23607,3.06167 -1.58658,1.6559 -1.68791,2.11487 -0.99317,4.49843 1.08209,3.7125 1.5841,12.686 0.75603,13.51408 -0.69711,0.69711 -0.896,0.40401 -0.896,-1.32043 0,-4.58402 -1.27665,-12.50022 -2.15806,-13.38163 -0.14097,-0.14098 -1.47708,0.54827 -2.96913,1.53166 -3.53783,2.33175 -5.8961,3.58069 -7.5452,3.99593 l -1.3345,0.33603 0.43965,1.65122 c 0.5903,2.21704 0.58523,4.05122 -0.0112,4.05122 -0.48932,0 -0.55246,-0.15736 -1.15553,-2.88 -0.50404,-2.27551 -0.82079,-2.65244 -2.04551,-2.43415 -0.53929,0.0961 -2.20453,0.19722 -3.70053,0.22468 -1.496,0.0275 -2.94979,0.16901 -3.23066,0.31455 -0.68058,0.35268 -1.76205,3.87305 -2.40075,7.81492 -0.38798,2.39449 -0.55952,6.36865 -0.68146,15.78798 -0.18137,14.01078 -0.0382,16.37457 1.70887,28.21167 0.61047,4.13619 1.61566,11.33635 2.23374,16.00035 0.61809,4.66399 1.47625,10.06302 1.90703,11.99783 0.43078,1.93481 0.78323,3.82049 0.78323,4.1904 0,1.44451 -2.68499,2.78757 -3.92547,1.96356 -1.02184,-0.67876 -2.98956,-4.78451 -6.16897,-12.8718 -3.58433,-9.11725 -5.8103,-15.8597 -7.65931,-23.19999 -1.36385,-5.41424 -2.59557,-9.80952 -6.20679,-22.14822 -2.5441,-8.69261 -4.539431,-20.71918 -4.684749,-28.23669 -0.08325,-4.30653 -0.151594,-4.80815 -0.683603,-5.0175 -1.381796,-0.54376 -1.915255,-0.29134 -3.138765,1.48514 -1.453725,2.11074 -3.29704,3.51963 -6.857802,5.24157 -3.594806,1.73841 -5.663709,2.14955 -8.450733,1.67933 -2.708902,-0.45703 -4.337446,-1.26315 -6.746944,-3.3397 -1.035728,-0.89261 -2.835312,-2.24831 -3.999075,-3.01268 -1.163766,-0.76436 -2.953312,-2.19263 -3.976771,-3.17393 -1.023459,-0.98129 -1.941235,-1.70377 -2.039504,-1.6055 -1.502653,1.50265 -1.963795,24.52217 -0.745728,37.22544 0.613446,6.39764 6.02904,43.87493 6.91687,47.8665 1.155188,5.19357 0.82672,6.46595 -1.838188,7.1206 -1.62161,0.39836 -2.65496,-0.53149 -4.537792,-4.08327 -0.956637,-1.8046 -2.008736,-4.0011 -2.338004,-4.8811 -0.791097,-2.11428 -0.891395,-1.31787 -0.47119,3.74143 0.855632,10.30188 1.944243,16.7027 3.731469,21.94031 1.310422,3.84031 1.735542,4.74998 4.149094,8.87826 1.63792,2.8016 6.551959,13.22952 6.551959,13.9037 0,0.18497 0.125449,0.3363 0.278774,0.3363 0.153325,0 0.37759,-0.7449 0.498365,-1.65535 0.120774,-0.91044 0.36039,-1.91844 0.532483,-2.24 0.30625,-0.57223 1.72696,-0.81939 1.981069,-0.34465 0.143017,0.2672 -0.596304,7.11948 -0.911146,8.44477 -0.230275,0.96932 1.457549,5.07018 5.002496,12.15441 6.744483,13.47819 11.449488,18.88679 20.828815,23.94361 2.97271,1.60272 8.1839,3.85721 8.91582,3.85721 0.45629,0 0.49632,-0.21598 0.28168,-1.52 -0.42204,-2.56396 -0.31489,-11.85971 0.19858,-17.2286 1.03631,-10.83575 1.30715,-11.97796 7.58047,-31.96807 1.80268,-5.74429 1.81308,-4.71932 -0.10074,-9.92333 -0.54735,-1.48831 -0.70991,-2.6438 -0.72305,-5.13927 -0.0204,-3.86979 0.6461,-6.10054 1.91799,-6.41976 0.43351,-0.10881 0.85902,-0.12701 0.94557,-0.0405 0.0866,0.0866 0.20367,2.01185 0.26025,4.27844 0.0964,3.86303 0.46721,5.88105 1.08054,5.88105 0.14509,0 0.65216,-1.38173 1.12683,-3.07052 1.5515,-5.51998 4.53535,-11.05683 6.18123,-11.46992 1.47191,-0.36943 1.57837,0.22635 0.49349,2.76161 -0.55045,1.28636 -1.72745,4.93083 -2.61555,8.09883 -0.88809,3.168 -2.68089,9.072 -3.98398,13.12 -2.91619,9.05903 -5.77651,18.77339 -6.40708,21.76 -1.03182,4.88711 -1.83928,13.67699 -1.88135,20.48 -0.0404,6.52816 -0.011,6.85703 1.02969,11.52 0.64057,2.87024 1.51224,5.75795 2.16816,7.18272 1.20747,2.62288 4.4726,7.15079 7.45741,10.34157 2.21514,2.36797 8.97589,7.19862 12.49926,8.93085 6.38783,3.14054 15.44895,5.84925 22.88393,6.84086 3.46656,0.46234 6.08029,0.53539 15.68,0.43821 18.30338,-0.18528 23.91564,-0.13475 35.84,0.32269 12.5176,0.48022 21.038,0.38893 22.16,-0.23747 1.44553,-0.80698 0.6086,-3.13501 -2.73041,-7.59485 -1.94199,-2.59389 -3.67162,-4.41213 -4.81537,-5.06205 -0.35087,-0.19939 -2.3874,-1.48851 -4.52561,-2.86474 -9.22672,-5.93859 -14.63389,-8.77952 -20.81845,-10.93808 -2.37059,-0.82739 -6.90216,-2.47926 -10.07016,-3.67084 -5.72506,-2.15335 -9.23464,-3.34423 -12.68192,-4.3033 -2.52652,-0.7029 -3.31693,-1.416 -3.27655,-2.95609 0.0418,-1.59369 1.78416,-5.04733 4.72903,-9.37365 4.67215,-6.86386 8.6438,-14.68438 10.81472,-21.29515 2.17171,-6.61314 5.14845,-19.27545 6.68347,-28.42974 l 0.36707,-2.18906 -1.3614,-2.74743 c -1.40931,-2.84411 -2.86996,-4.53441 -7.03442,-8.14041 -1.78857,-1.54873 -2.03064,-1.88324 -1.72773,-2.38755 0.68411,-1.13895 2.07932,-0.89282 4.95593,0.87423 1.48049,0.90945 3.15764,2.095 3.72701,2.63454 0.56936,0.53955 1.12875,0.88745 1.24307,0.77313 0.11434,-0.11433 -0.0275,-1.84436 -0.3152,-3.84451 -0.28769,-2.00014 -0.52308,-4.0103 -0.52308,-4.46702 0,-1.09547 1.36364,-2.15686 2.77108,-2.15686 0.88457,0 1.1455,0.15976 1.41387,0.86563 0.81206,2.13588 1.29814,7.78734 1.2828,14.91462 -0.014,6.50168 -0.0834,7.45336 -0.63489,8.7 -0.34055,0.76987 -0.7887,2.23676 -0.99588,3.25976 -0.47877,2.36395 -2.69305,11.94188 -3.53715,15.29999 -2.4654,9.80824 -7.20284,19.95517 -13.44625,28.8 -1.89219,2.6806 -3.57524,5.79321 -3.93117,7.27024 -0.28188,1.16977 0.28404,1.49005 5.23759,2.96423 2.2,0.65472 6.448,2.12668 9.44,3.271 2.992,1.14432 7.312,2.72868 9.6,3.52077 4.79236,1.65911 8.65061,3.38992 11.82923,5.30663 1.71576,1.03459 2.67394,1.38947 4.16,1.54064 1.06192,0.108 4.52277,0.65062 7.69077,1.20576 4.00855,0.70246 6.19786,0.94483 7.2,0.79705 2.17153,-0.32019 6.74317,-1.87926 9.3558,-3.19062 5.59504,-2.80829 8.16429,-5.11258 13.38119,-12.00116 3.72523,-4.91892 4.50797,-5.72454 5.56197,-5.72454 1.02646,0 0.41963,1.34731 -2.71209,6.0214 -5.01257,7.48129 -9.76248,11.53764 -16.40138,14.00651 -1.35602,0.50428 -2.46549,1.02828 -2.46549,1.16448 0,0.42681 12.73258,0.26787 17.76,-0.2217 29.2058,-2.844 41.18408,-4.85459 54.4,-9.13114 4.7263,-1.52937 25.19754,-9.12338 34.08,-12.6423 10.05606,-3.98385 13.74435,-4.86399 26.28019,-6.27132 6.09571,-0.68433 6.97629,-0.71158 11.52,-0.35648 4.65411,0.36371 6.65453,0.75256 8.67981,1.68718 1.30256,0.60111 1.22317,2.02354 -0.16,2.86688 -1.34387,0.81938 -1.90963,0.8005 -3.01546,-0.10064 -1.3568,-1.10569 -2.99987,-1.48358 -8.04572,-1.85046 -4.02541,-0.29268 -5.30653,-0.25027 -10.56,0.3496 -12.08436,1.37986 -13.40663,1.72715 -28.19514,7.4053 -22.64205,8.69356 -27.90485,10.57708 -35.70368,12.77807 -2.464,0.69536 -4.83016,1.52233 -5.25814,1.83769 -0.9793,0.72157 -2.76258,3.87604 -3.37889,5.97693 -1.32693,4.5233 -1.854,16.10672 -0.93613,20.57351 0.56954,2.77164 2.17585,6.72166 3.79119,9.32275 0.97048,1.56269 5.47162,6.42374 5.94814,6.42374 0.10606,0 0.3769,-0.71814 0.60186,-1.5959 z M 127.74911,81.249112 c -2.08471,-0.621027 -2.53108,-3.393943 -0.92937,-5.773354 0.86913,-1.291126 2.10632,-1.935699 4.07926,-2.125273 1.33352,-0.128135 1.54196,-0.04927 2.32299,0.878928 1.04661,1.243821 1.13905,3.008678 0.24846,4.743334 -1.00296,1.953533 -3.48714,2.94192 -5.72134,2.276365 z M 85.301229,327.33996 c 2.821977,-0.50534 20.730181,-5.1488 21.083201,-5.46669 0.17954,-0.16169 -0.27993,-0.49609 -1.12,-0.81513 -2.28481,-0.86778 -7.92242,-3.8609 -10.793192,-5.73034 -3.019382,-1.96622 -6.945321,-5.71609 -9.179475,-8.76781 -4.029459,-5.50398 -8.939206,-15.04815 -13.580787,-26.4 -3.317926,-8.1146 -3.482566,-8.48 -3.820925,-8.48 -0.499232,0 -1.170541,8.9529 -1.151731,15.36 0.0177,6.02483 0.280694,9.08439 1.306624,15.2 0.265725,1.584 0.680688,4.5644 0.922141,6.6231 0.465587,3.96978 0.921657,5.24225 2.46047,6.86487 1.271363,1.34062 0.999843,2.19896 -0.971437,3.07095 -2.826384,1.25023 -6.359891,0.79119 -17.016118,-2.21064 -6.99023,-1.96913 -9.884595,-3.00266 -17.756163,-6.34042 -7.524675,-3.19067 -11.575549,-4.53195 -15.858884,-5.251 -2.015724,-0.33838 -3.722345,-0.55971 -3.79249,-0.49185 -0.213213,0.2063 1.537996,2.56288 2.622718,3.52937 2.549034,2.2712 5.205199,3.99142 9.194358,5.95458 7.273015,3.57923 8.670042,4.04167 27.030461,8.94768 13.110656,3.50323 15.297018,4.04682 17.680797,4.39594 2.700723,0.39555 10.547459,0.40009 12.740432,0.007 z M 62.836022,216.24 c -0.391561,-2.684 -1.232732,-8.408 -1.869267,-12.72 -2.957814,-20.03669 -3.411286,-24.80291 -3.531702,-37.12 -0.05248,-5.368 0.02483,-11.416 0.171808,-13.44 0.237718,-3.27363 1.003846,-8.55032 1.445097,-9.95311 0.132112,-0.41999 -0.202748,-0.55063 -1.84528,-0.71991 -1.103673,-0.11374 -2.438678,-0.26405 -2.966678,-0.33402 -0.528,-0.07 -2.832,-0.17801 -5.12,-0.24009 L 44.96,141.6 l -0.04461,2.24808 c -0.05463,2.75342 0.433856,9.75517 0.892442,12.79192 1.266838,8.38892 3.596153,17.8974 9.720502,39.68 1.286579,4.576 2.78336,9.91172 3.326179,11.85716 1.521082,5.45148 4.131258,12.94284 4.509616,12.94284 0.101101,0 -0.13655,-2.196 -0.528112,-4.88 z m 56.363108,-6.35349 c -0.62398,-4.46958 -1.34489,-9.42251 -1.60202,-11.00651 -0.87309,-5.37845 -1.28649,-19.06036 -0.86294,-28.56 0.39408,-8.83875 0.91893,-12.63426 2.28724,-16.54045 0.36614,-1.04524 0.55611,-1.99226 0.42215,-2.10449 -0.13396,-0.11223 -1.53956,-0.38202 -3.12356,-0.59953 -1.584,-0.21751 -3.888,-0.75408 -5.12,-1.19238 -4.9995,-1.77861 -7.21157,-2.42719 -7.67359,-2.24989 -0.70682,0.27123 -0.62828,2.66829 0.31555,9.63005 1.52385,11.24 2.42549,15.4239 5.38255,24.97669 0.98065,3.168 3.08599,10.61257 4.67853,16.54348 2.96779,11.05263 5.81317,19.84698 6.27273,19.38741 0.0868,-0.0868 -0.35267,-3.81479 -0.97664,-8.28438 z M 86.089341,151.92 c 0.916534,-0.46311 2.309225,-1.74758 3.903325,-3.6 1.363104,-1.584 2.480387,-2.96171 2.482854,-3.06156 0.0073,-0.29492 -3.185283,-1.20349 -5.522298,-1.5716 -2.793798,-0.44005 -16.673203,-1.03337 -18.065116,-0.77224 -0.915229,0.17169 -1.007418,0.26922 -0.656436,0.69442 0.224583,0.27206 1.41633,1.13907 2.64833,1.92666 1.232,0.7876 3.324448,2.32632 4.649885,3.41938 2.67351,2.20478 3.398909,2.65066 5.270115,3.2394 1.9612,0.61705 3.703917,0.52662 5.289341,-0.27446 z m 44.898859,-3.3044 c 0.56808,-0.218 0.51865,-0.37459 -2.96475,-9.39228 -2.19842,-5.69119 -2.3376,-6.39049 -1.27745,-6.41842 0.1023,-0.003 1.10103,2.3351 2.21939,5.1951 1.11835,2.86 2.22935,5.36476 2.46887,5.56615 0.23951,0.20138 0.71679,0.29259 1.06061,0.20268 0.79973,-0.20913 0.86063,0.78841 0.0829,1.35713 -0.4746,0.34703 -0.49346,0.55939 -0.15118,1.70184 0.2151,0.71793 0.51335,1.38089 0.66278,1.47324 0.65339,0.40382 3.71855,-0.95247 7.08594,-3.13542 2.00358,-1.29885 3.78514,-2.58709 3.95902,-2.86275 0.43485,-0.68938 -0.1812,-1.75228 -2.4518,-4.23024 -1.76985,-1.93148 -1.96506,-2.67779 -0.58592,-2.24007 0.33597,0.10663 1.55613,1.19593 2.71148,2.42066 1.15535,1.22473 2.16095,2.22678 2.23468,2.22678 0.61528,0 2.50366,-4.78826 3.02883,-7.68 1.10039,-6.0591 0.79354,-6.92563 -2.33327,-6.58908 -1.06606,0.11475 -3.45633,0.33571 -5.31171,0.49104 -2.96711,0.2484 -7.71851,1.15803 -9.34658,1.78936 -0.31253,0.12119 -0.56,0.0708 -0.56,-0.11409 0,-0.52247 3.08043,-1.53662 6.38657,-2.1026 2.5813,-0.4419 3.17684,-0.66378 4.04797,-1.50811 1.0683,-1.03544 1.90184,-1.07073 2.69574,-0.11413 0.27156,0.3272 1.04893,0.46761 2.5889,0.46761 1.88449,0 2.20014,-0.0805 2.19609,-0.56 -0.008,-0.92183 -0.91224,-4.48938 -2.11704,-8.3505 l -1.13283,-3.63048 -1.1727,0.20585 c -2.59761,0.45599 -4.58531,1.20088 -5.61352,2.10365 -1.08444,0.95215 -1.79918,1.21227 -1.79918,0.65477 0,-0.73956 2.46648,-2.21528 5.11981,-3.06323 1.5841,-0.50625 2.88019,-1.01978 2.88019,-1.14118 0,-1.13153 -2.99387,-6.1597 -5.22711,-8.77888 C 134.63828,95.834363 126.72048,87.662718 121.76,83.350376 120.176,81.973339 116.432,78.367374 113.44,75.337122 107.53409,69.355698 105.45736,67.859125 100.36435,65.91429 95.323206,63.989256 87.968899,63.405519 83.838982,64.602607 78.878643,66.040399 72.839418,69.688699 67.04,74.750878 c -1.76,1.536266 -4.155069,3.413811 -5.322371,4.172327 -1.167306,0.758515 -2.204541,1.593241 -2.304967,1.854947 -0.100425,0.261705 -0.941097,0.860192 -1.86816,1.329968 -2.032982,1.030192 -5.27686,4.06856 -7.144502,6.691878 -1.397485,1.962931 -4.056173,7.068624 -5.915491,11.360002 -0.571914,1.32 -1.821277,4.09749 -2.776359,6.17221 -2.324806,5.05014 -3.935209,10.47125 -3.109049,10.466 0.968281,-0.006 2.666976,-0.75494 3.260054,-1.43704 0.776736,-0.89332 2.215363,-1.07628 2.506074,-0.3187 0.101827,0.26536 -0.05001,0.84136 -0.337421,1.28 -0.45263,0.6908 -0.759235,0.79753 -2.291075,0.79753 -2.13945,0 -3.572499,0.67296 -3.858352,1.8119 -0.276035,1.09981 0.09717,7.29041 0.532201,8.8281 0.186727,0.66 0.5168,1.2 0.733501,1.2 0.216701,0 1.757933,-1.00635 3.42496,-2.23633 3.602947,-2.65836 4.418115,-3.0651 6.630957,-3.30863 1.277485,-0.14059 1.68,-0.0829 1.68,0.24085 0,0.82103 -0.912989,1.23342 -2.255405,1.01876 -1.112781,-0.17794 -1.500822,-0.0646 -2.798265,0.81747 -2.674973,1.81855 -6.14633,4.82054 -6.14633,5.31527 0,0.72873 3.393475,5.6761 4.30135,6.27096 0.437872,0.2869 0.9092,0.51183 1.047392,0.49983 0.138192,-0.012 0.815866,-1.17321 1.505946,-2.58047 1.344656,-2.74213 3.325677,-5.25759 3.971114,-5.04245 0.26823,0.0894 0.124444,0.4907 -0.447268,1.24826 -0.463417,0.61406 -1.472652,2.40872 -2.242739,3.98813 -1.177321,2.41462 -1.323587,2.91451 -0.919024,3.14091 0.328061,0.18359 0.791527,0.008 1.456736,-0.55165 0.536579,-0.4515 1.172051,-0.82091 1.41216,-0.82091 0.797587,0 0.91064,0.73192 0.201719,1.30597 -0.682944,0.55302 -0.661264,0.56514 1.309084,0.73193 5.392775,0.45651 13.303751,0.87003 20.24353,1.05816 8.747206,0.23712 8.164755,0.5302 5.245738,-2.63954 -0.822285,-0.89292 -1.790743,-2.20306 -2.152132,-2.91144 -0.932457,-1.82777 -1.701952,-6.68301 -1.740998,-10.98508 -0.02774,-3.05703 0.07636,-3.92377 0.614989,-5.12 0.743155,-1.65046 1.261366,-2.15532 2.609011,-2.54182 1.384499,-0.39707 1.791565,0.15437 0.952109,1.28979 -0.618797,0.83697 -0.652179,1.16906 -0.454151,4.5177 0.28712,4.85513 0.974247,9.16982 1.733748,10.8868 0.343465,0.77646 1.616102,2.5142 2.828083,3.86164 1.861389,2.06944 2.551472,2.59567 4.443603,3.38852 1.232,0.51624 3.392,1.10626 4.8,1.31116 1.408,0.2049 4.648,0.87799 7.2,1.49575 2.552,0.61775 6.08,1.45565 7.84,1.86199 1.76,0.40634 4.352,1.18159 5.76,1.72278 2.93579,1.12843 5.6309,1.85543 8.34672,2.25152 2.17925,0.31783 10.72518,0.44463 11.44148,0.16977 z m -7.13544,-4.44023 c -0.56962,-0.68635 -0.28413,-1.52834 0.70674,-2.08437 0.66366,-0.37242 1.01089,-0.40583 1.43774,-0.13832 0.85411,0.53527 0.86852,1.58893 0.0298,2.17642 -0.90696,0.63525 -1.67192,0.65153 -2.17425,0.0463 z m 13.12808,-4.76253 c -0.22947,-0.22947 -0.16979,-0.51146 0.19312,-0.91248 0.93907,-1.03765 2.91853,-0.53575 2.04382,0.51822 -0.47534,0.57274 -1.82124,0.80995 -2.23694,0.39426 z M 98.56,137.64959 c 0,-0.74812 0.865376,-1.53619 1.99702,-1.8186 1.22821,-0.30652 1.52767,0.58214 0.54768,1.62529 -0.9086,0.96716 -2.5447,1.09145 -2.5447,0.19331 z m 12.8,-2.33432 c 0,-0.57752 1.03904,-1.21398 2,-1.2251 1.0241,-0.0118 1.11564,0.31738 0.2948,1.06023 -0.66393,0.60085 -2.2948,0.71803 -2.2948,0.16487 z m 12.16,-4.10706 c 0,-0.73032 0.21967,-1.06537 0.94411,-1.44 1.22601,-0.63399 1.52517,-0.61564 1.91759,0.11759 0.47811,0.89335 -0.69066,2.2742 -1.92493,2.2742 -0.82573,0 -0.93677,-0.11283 -0.93677,-0.95179 z m -68.4,-1.20202 c -0.604157,-0.21074 -0.479674,-0.98103 0.218963,-1.35494 0.878608,-0.47021 1.941037,-0.41024 1.941037,0.10957 0,0.7401 -1.360221,1.52435 -2.16,1.24537 z m 41.52,-1.48701 c 0,-0.87864 1.739146,-1.67842 2.547277,-1.17141 0.399737,0.25078 0.381005,0.38848 -0.129597,0.95269 -0.681427,0.75297 -2.41768,0.91004 -2.41768,0.21872 z m 15.20736,-3.70727 c -0.30695,-0.49667 0.33282,-1.18744 1.33205,-1.43823 1.06643,-0.26766 1.69689,0.29095 1.04687,0.92755 -0.65205,0.63858 -2.10686,0.95089 -2.37892,0.51068 z m 21.27602,-5.28784 c -0.96205,-1.15919 1.07504,-2.49943 2.43981,-1.6052 0.41625,0.27274 0.75681,0.7035 0.75681,0.95725 0,1.0259 -2.4678,1.52612 -3.19662,0.64795 z m -79.222359,-2.11478 c -0.472848,-0.76508 1.562845,-1.80481 2.418979,-1.23549 0.409334,0.27221 0.368784,0.41246 -0.27545,0.9527 -0.832387,0.69801 -1.807408,0.82665 -2.143529,0.28279 z M 122.24,113.76822 c 0,-0.25949 0.42288,-0.69047 0.93973,-0.95774 1.50774,-0.77968 2.64015,0.0277 1.38027,0.98406 -0.77675,0.58964 -2.32,0.57213 -2.32,-0.0263 z M 71.977475,99.921252 c -2.74039,-2.772688 -5.83639,-6.122147 -6.88,-7.443235 C 62.919686,89.721188 59.52,84.691896 59.52,84.227029 c 0,-0.172724 0.519776,-0.8189 1.155059,-1.435949 3.019472,-2.932803 8.191027,-4.20888 16.924941,-4.176215 8.737245,0.03268 14.289603,1.02105 19.04,3.389284 3.52541,1.757536 3.36191,2.20256 -3.874781,10.546348 -5.723712,6.59935 -9.479821,10.553673 -11.012838,11.594013 -0.933773,0.63367 -1.601965,0.81577 -2.997037,0.81674 L 76.96,104.96253 71.977475,99.921275 Z M 84.37744,97.519998 C 89.016448,92.45948 94.72,85.792782 94.72,85.43092 c 0,-0.463348 -2.027923,-1.525418 -4.48,-2.346272 -2.667149,-0.892855 -8.241523,-1.735018 -12.64,-1.909619 -5.127456,-0.20354 -11.83352,0.564704 -13.116141,1.502579 -0.521533,0.381353 -0.489664,0.507718 0.460544,1.826048 3.918842,5.437056 5.844384,7.94239 6.745293,8.776342 l 1.037078,0.96 -0.222684,-0.96 c -0.122477,-0.528 -0.825466,-2.184 -1.562199,-3.68 -0.736733,-1.496 -1.384989,-2.818822 -1.440569,-2.939606 -0.05558,-0.120781 0.266832,-0.460656 0.71648,-0.755274 1.956428,-1.281901 3.161852,0.148426 5.898611,6.999155 1.038662,2.600003 1.977376,4.816179 2.086032,4.924835 0.245501,0.245504 0.208355,0.293847 1.405465,-1.82911 1.267604,-2.247971 4.148112,-5.605472 6.732493,-7.847354 1.690707,-1.466646 2.220355,-1.752646 3.245763,-1.752646 1.493607,0 1.816861,0.59543 1.120231,2.063469 -0.818419,1.724691 -2.238026,2.877331 -3.443747,2.796131 -1.225428,-0.08253 -2.363079,0.954755 -4.146186,3.7804 -1.07079,1.696857 -3.436464,6.207282 -3.436464,6.552012 0,0.74509 1.371213,-0.44355 4.69744,-4.072012 z"
     id="path817"
     inkscape:connector-curvature="0"
     sodipodi:nodetypes="cccsccccccccccccccscccccccccccscsccsccccsscccccssscsccsscsccsccscccsscsscsssssccsssccccssscsccsscscccccssccccccccccsscccscccccccccccccsscccscsccccccccscccccccsscssscsscssscsssscscscccccccsccccccsscscccccsccccssscsscscsscsccscccsscssscsssscccssscsscccccsccccsccccccsscccccccccscscsccccccsscscccscssccccccssccsccssccsccsscccscsccccsscccccccsscscccssccsssccccssccccscccsssccccssssccssscccccccccccccscccccccccscssscscscccscscccscsccsssscccsscccccsccssssscscsccscccsccscccsscsscsscscccccccccccccscsssccssccssccscscssccccccscccccsccsscsssssscccccsscscssccsccscsssscsss" />
</svg>
